<svg width="147" height="41" viewBox="0 0 147 41" fill="none" xmlns="http://www.w3.org/2000/svg">
<path fill-rule="evenodd" clip-rule="evenodd" d="M21.1022 24.2065C20.5988 24.0532 17.5439 21.5652 17.1687 21.1532C17.0092 20.9807 16.8623 20.7603 16.6872 20.5751C16.5652 22.8811 20.7614 24.2065 22.1372 27.4132C22.7281 28.7866 22.4061 29.6298 22.1247 30.9456C22.5124 30.6582 22.8782 30.0003 23.1034 29.4126C23.3566 28.7482 23.3285 28.0711 23.563 27.3653C25.0295 22.9386 25.8956 20.936 28.075 16.7839C28.594 15.7938 29.3726 14.6089 29.9792 13.6667C31.3112 11.6098 33.7595 8.44785 35.5918 6.75189L36.88 5.5989C37.668 7.27889 38.4591 14.7782 38.4528 17.0714C38.4434 19.9139 38.1589 22.2263 37.4147 24.7718C35.7669 30.3995 34.0534 34.5068 30.1011 38.6046C29.7134 39.0038 28.125 40.4411 27.9655 40.7349C28.6222 40.473 30.1293 39.4095 30.7578 38.9464C32.0992 37.9562 33.3686 36.9342 34.5381 35.7876C43.9497 26.586 42.5739 13.8136 39.5034 1.99938C39.3533 1.4117 39.0938 0.603646 38.9937 0C38.2902 0.22996 36.4391 1.63527 35.8732 2.1431C34.7819 3.11724 32.9059 4.93776 31.9647 6.06521C31.577 6.53471 31.108 7.00421 30.7359 7.50246L30.1637 8.22428C29.5633 8.90138 27.8811 11.2265 27.3777 11.9931C26.3709 13.5325 25.2421 15.3019 24.3947 16.9436C23.7287 18.2339 21.4274 22.7629 21.1022 24.2065Z" fill="#8E6546"/>
<path fill-rule="evenodd" clip-rule="evenodd" d="M13.9396 40.7727C13.752 40.613 13.4675 40.2968 13.2548 40.086C12.4919 39.3226 11.7852 38.7094 11.0817 37.9045C7.86111 34.222 6.61351 31.5934 4.8844 26.3554C3.1459 21.0823 3.04897 16.1381 3.94636 10.5552C4.08081 9.71841 4.65301 6.20194 4.94693 5.63662C5.2471 5.79631 6.4603 6.93014 6.74171 7.24315C7.29515 7.86595 7.92364 8.37698 8.43331 9.01895L10.0155 10.8363C10.8753 11.3217 11.5069 11.6411 11.8697 12.4364C12.1073 12.2128 12.2511 11.6411 12.248 11.6028C12.0041 11.0279 11.8697 10.7149 11.9572 9.96754C12.0354 9.31279 12.3199 9.02534 12.4294 8.58139C11.3412 7.1633 10.547 6.17638 9.33695 4.91799C8.94923 4.51236 8.55525 4.19617 8.18629 3.80332C7.23575 2.78766 3.80878 0.315587 2.87074 0.0185547C2.62372 0.577486 1.61689 4.86689 1.42929 5.72605C0.991534 7.75736 0.625699 9.76313 0.356794 11.9094C-0.590625 19.4917 0.212962 26.2628 4.4185 32.3855C4.88752 33.069 5.47849 33.8323 6.0288 34.4104C6.30709 34.7074 6.54785 35.0013 6.86366 35.3526C7.01062 35.5155 7.15445 35.6145 7.32017 35.7838L8.69909 37.0677C9.38698 37.7353 10.9347 38.8691 11.7571 39.4152C12.4669 39.8879 13.1767 40.383 13.9396 40.7727Z" fill="#8E6546"/>
<path fill-rule="evenodd" clip-rule="evenodd" d="M19.5292 35.4047C19.8763 34.7627 20.1671 34.4912 20.6893 33.3861C23.8411 26.7141 19.2103 25.6856 16.9277 23.0347C15.2893 21.128 15.2956 18.8028 15.0923 18.3652C14.5795 19.3969 14.7702 21.9711 15.6958 23.3956C16.1242 24.0631 16.5525 24.4304 17.1654 24.9127C19.0071 26.3787 20.6955 27.8032 20.6987 30.5372C20.6987 32.4599 20.0483 33.8524 19.5292 35.4047Z" fill="#8E6546"/>
<path fill-rule="evenodd" clip-rule="evenodd" d="M8.99152 26.1295C8.78203 26.7203 7.93779 27.6881 8.8727 28.0011C8.60693 28.6942 8.82893 28.8794 9.16975 29.4032C9.51995 29.943 9.2104 33.0538 12.3778 32.1723C13.5348 31.8497 15.3358 30.8117 16.2676 33.5074C16.4489 34.0343 16.5021 34.7146 16.6678 35.1937C16.8929 32.728 15.5234 30.5562 12.9907 31.5687C11.9057 31.9998 10.7738 32.2426 10.1078 31.3068C9.72007 30.767 9.80762 30.4125 9.7013 29.7513C9.59499 29.0966 9.08533 28.972 9.09471 28.3173C9.22916 28.2598 9.34172 28.1959 9.54496 28.132L9.9108 28.0266C10.0484 27.9532 10.0077 27.9628 10.089 27.8861C9.59187 27.8031 9.13848 27.8478 8.84144 27.5188C8.82893 26.8577 9.20727 26.7235 9.35423 26.2125C9.0009 25.612 8.2536 25.4811 7.87838 24.8232C7.95343 24.5421 8.28174 24.079 8.44121 23.8203C8.63507 23.5105 8.8258 23.1655 8.97276 22.811C9.32609 21.9646 9.53558 21.3067 9.63564 20.2814C9.72945 19.2786 9.56685 18.3811 9.76384 17.3271C9.95145 16.321 10.3048 15.7557 10.5424 14.9668C8.97276 16.9885 9.47305 19.7225 9.08845 21.3833C8.3818 24.4335 6.06171 24.7018 8.99152 26.1295Z" fill="#8E6546"/>
<path fill-rule="evenodd" clip-rule="evenodd" d="M12.0879 14.0482C12.0848 15.345 12.6382 16.5363 13.5919 16.8525C13.5106 14.9266 13.2323 14.5784 13.0384 13.2593C14.0453 15.4056 13.6607 15.7857 13.9765 16.6385C14.2141 16.4405 14.4424 15.7889 14.508 15.4152C14.605 14.8435 14.5362 14.3133 14.3173 13.8694C13.964 13.1603 13.1885 12.4417 12.5382 12.084C12.1942 12.496 12.0879 13.3839 12.0879 14.0482Z" fill="#8E6546"/>
<path fill-rule="evenodd" clip-rule="evenodd" d="M16.3509 9.90705C19.0493 10.0348 21.8884 10.5714 23.6801 12.5452C25.034 14.0368 24.2335 13.1904 25.1622 14.4775L25.256 14.3977C25.281 14.3657 25.356 14.2667 25.3623 14.2571C25.4592 14.1038 25.4373 14.1358 25.5061 13.9697C24.862 12.6123 23.3486 11.3028 21.9416 10.565C20.3907 9.75694 18.2926 9.19482 16.2227 9.34173L16.3509 9.90705Z" fill="#8E6546"/>
<path fill-rule="evenodd" clip-rule="evenodd" d="M17.0075 16.0238C17.2045 15.8386 17.1952 15.7811 17.3296 15.516C17.439 15.2956 17.5172 15.1902 17.6298 15.005C17.8862 14.5802 18.0925 14.4109 18.3396 14.0947C18.0019 14.692 17.4453 15.4106 17.2858 16.2282C19.1682 16.1899 19.5559 14.6632 19.459 12.7692C18.8836 12.699 17.9768 13.4559 17.6861 13.7625C17.167 14.3151 16.8981 14.989 17.0075 16.0238Z" fill="#8E6546"/>
<path fill-rule="evenodd" clip-rule="evenodd" d="M14.9834 13.3191C15.0772 13.5491 14.8614 13.6066 15.1866 13.4277C16.0027 13.0572 16.675 10.9716 15.812 9.54395C14.5112 9.86972 13.5075 12.4089 14.6863 13.6577C14.8396 12.3801 14.9271 11.8467 15.3055 10.7353C15.2586 11.5082 14.9083 12.4153 14.9834 13.3191Z" fill="#8E6546"/>
<path fill-rule="evenodd" clip-rule="evenodd" d="M14.6968 17.0612C14.925 16.7769 15.1032 16.2371 15.4659 15.7357L15.8287 15.3237C15.5816 15.9465 15.1189 16.5118 14.9438 17.2368C16.8105 17.2624 16.9762 14.7488 16.6135 14.126C15.3471 14.5029 14.1996 16.0295 14.6968 17.0612Z" fill="#8E6546"/>
<path fill-rule="evenodd" clip-rule="evenodd" d="M11.5442 14.3297L11.7506 14.2849C11.7975 13.4226 11.8444 12.9978 11.4035 12.3526C11.169 12.0109 10.4655 11.3849 9.98709 11.2891C9.6619 12.8668 9.87765 14.2658 11.3941 14.5692C11.2628 13.9687 10.8595 13.1032 10.5843 12.688C10.9064 13.0074 11.4536 13.8059 11.5442 14.3297Z" fill="#8E6546"/>
<path fill-rule="evenodd" clip-rule="evenodd" d="M13.1603 11.9895C13.1415 11.6446 13.0227 11.2102 12.9852 10.8397C12.932 10.2904 13.0133 9.98697 13.0383 9.6037L13.2947 11.4019C13.3604 11.6701 13.3479 11.75 13.4948 11.948C14.8862 10.7727 13.6387 9.35458 12.9382 8.68066C12.0596 9.31306 12.0846 11.4785 13.1603 11.9895Z" fill="#8E6546"/>
<path fill-rule="evenodd" clip-rule="evenodd" d="M15.4863 18.2208C16.0366 17.9206 16.4963 17.4064 17.2436 17.2435C16.6745 17.6364 16.0429 17.9749 15.6333 18.4572C15.6927 18.5115 15.6552 18.5243 15.7802 18.5818C16.2243 18.7862 16.8621 18.6105 17.2467 18.2113C17.5688 17.8759 17.944 17.3329 18.0034 16.7932C16.7277 16.5249 15.7052 17.2403 15.4863 18.2208Z" fill="#8E6546"/>
<path fill-rule="evenodd" clip-rule="evenodd" d="M16.1749 13.3592C16.4657 13.1261 16.3906 13.0558 16.7596 12.5639C16.9816 12.2701 17.1411 12.0178 17.4068 11.8517C17.163 12.2957 16.4907 13.059 16.4031 13.6914C17.6851 13.7042 18.1291 12.4937 17.9478 11.1299C17.5569 11.1906 16.9284 11.5994 16.7252 11.7974C16.3875 12.1296 16.1561 12.6598 16.1749 13.3592Z" fill="#8E6546"/>
<path fill-rule="evenodd" clip-rule="evenodd" d="M10.4259 20.121C10.9575 20.0316 10.9888 19.4375 11.9331 19.2363C12.8023 19.0511 13.2119 19.3641 13.9123 19.5301C13.1838 18.4538 10.082 18.5911 10.4259 20.121Z" fill="#8E6546"/>
<path fill-rule="evenodd" clip-rule="evenodd" d="M10.7904 22.0948L10.5872 21.5678C10.9749 21.9096 11.0093 22.1906 11.9004 22.0597C12.4789 21.9734 12.7509 21.6413 13.1199 21.4209C12.9729 21.7115 12.8854 21.9734 12.5602 22.1587C12.4132 22.2545 12.1193 22.3407 11.9317 22.3759C11.7597 22.411 11.6597 22.6921 11.3282 22.8901L11.569 22.427C11.4595 22.5515 11.322 22.7144 11.1125 22.8294C11.2657 22.6378 11.3439 22.5228 11.3532 22.4014C11.2688 22.5228 11.1875 22.6537 10.9436 22.7719L11.1875 22.3791C11.0531 22.5803 10.8936 22.6378 10.6216 22.7144C10.8748 22.5196 11.0562 22.3088 11.0155 22.3216C10.9155 22.3471 10.7904 22.4909 10.4902 22.5994C10.8311 22.2992 10.8248 22.2609 10.7904 22.0948Z" fill="#8E6546"/>
<path fill-rule="evenodd" clip-rule="evenodd" d="M15.8504 19.192C16.0193 19.2655 17.023 19.5433 17.0292 19.5433L15.8223 19.3996C16.0818 20.0831 16.8604 20.1694 17.5514 19.7637C17.4388 19.4731 17.1855 19.2783 16.9073 19.1409C16.6384 19.0068 16.0036 18.9397 15.8504 19.192Z" fill="#8E6546"/>
<path fill-rule="evenodd" clip-rule="evenodd" d="M15.1865 13.4267C14.862 13.6051 15.0773 13.5478 14.9837 13.3184C14.9026 13.5828 14.9681 13.5573 15.0149 13.6179C15.2395 13.4872 15.0835 13.5701 15.1865 13.4267Z" fill="#8E6546"/>
<path fill-rule="evenodd" clip-rule="evenodd" d="M11.7502 14.2861L11.5449 14.3306L11.6444 14.4831L11.7502 14.2861Z" fill="#8E6546"/>
<path fill-rule="evenodd" clip-rule="evenodd" d="M59.387 22.0436C58.2801 19.7312 57.2545 16.8599 55.4691 15.1352C54.7562 14.4453 53.9214 14.1738 52.9583 14.6913C52.3642 15.0074 52.6613 14.803 52.4268 15.2246L53.2335 15.7516L53.2491 28.8849L54.6374 28.8689L54.6499 21.2004C54.6499 19.8174 54.4842 19.3767 54.9845 18.7858C55.3065 19.9548 56.2102 21.392 56.6917 22.5035C57.142 23.5383 58.0487 25.0522 58.3677 26.0583C58.6209 26.8536 58.0206 27.3518 58.5865 28.2972C59.412 29.6674 62.5951 29.134 60.9598 25.065L65.0246 18.4537L65.0528 28.9137L67.7981 28.9169L67.8575 15.8251L68.6924 15.2246C68.4328 14.8062 68.9394 15.1959 68.3359 14.8158C67.7856 14.4709 66.2066 14.2633 65.4499 15.1448C63.752 17.1186 61.5977 21.8935 60.1968 23.5128L59.387 22.0436Z" fill="#8E6546"/>
<path fill-rule="evenodd" clip-rule="evenodd" d="M76.1813 15.8531C78.9735 15.0642 81.5406 18.2517 81.7376 20.6663C82.0003 23.9081 80.6995 27.2489 78.1668 27.7823C75.2276 28.3987 72.9232 25.4923 72.6324 22.9436C72.2665 19.7049 73.8206 16.5238 76.1813 15.8531ZM84.8675 22.7807C85.8994 17.8269 82.5005 14.8758 78.2669 14.5436C73.8987 14.1987 70.0809 16.8688 69.3868 20.7494C67.6295 30.5482 82.8789 32.2921 84.8675 22.7807Z" fill="#8E6546"/>
<path fill-rule="evenodd" clip-rule="evenodd" d="M131.063 14.86L131.047 25.0549C130.509 24.6653 127.204 20.0086 126.482 19.0344C124.947 16.968 124.991 17.4598 124.506 15.6138C124.074 13.9689 121.942 14.432 121.02 15.2241C121.06 15.2465 121.313 15.4956 121.423 15.5627C121.467 15.5882 121.729 15.6872 121.848 15.7192L121.867 28.8972L124.606 28.9227L124.622 18.9737C125.025 19.1909 128.283 23.7327 128.765 24.4257C130.312 26.6519 131.648 29.0441 133.818 28.8812L133.811 14.8089L131.063 14.86Z" fill="#8E6546"/>
<path fill-rule="evenodd" clip-rule="evenodd" d="M110.523 15.7648C110.845 16.0618 110.623 15.3464 110.795 16.2726L110.729 21.2295L104.257 21.1561L104.175 15.7935C103.888 14.1231 101.477 14.1742 100.633 15.2729L101.515 15.7105L101.558 28.9109L104.31 28.8246L104.316 22.5518L110.723 22.6253L110.767 28.9141L113.496 28.9013C113.587 27.5343 113.831 16.0171 113.162 15.0717C112.612 14.2924 110.482 14.2764 109.866 15.225L110.523 15.7648Z" fill="#8E6546"/>
<path fill-rule="evenodd" clip-rule="evenodd" d="M99.9324 23.6729C99.2195 23.871 100.092 23.2609 98.9538 24.7684C98.5098 25.3593 98.466 25.3529 97.875 25.7745C94.8326 27.9527 90.8835 26.8541 89.6484 23.6218C88.7917 21.3829 89.4264 18.3711 90.6396 16.9817C92.0873 15.3241 95.3267 15.1548 96.3585 17.1606C95.8614 17.7866 94.6544 18.4413 95.5925 19.6518C96.1396 20.3577 97.481 20.5525 98.3628 19.9489C101.368 17.8952 96.9088 12.7626 90.7616 15.0015C88.9636 15.6563 87.5378 16.9977 86.8062 18.6809C84.7956 23.2961 87.1689 27.5631 90.8585 28.7129C93.9915 29.687 97.2278 28.8215 99.1007 26.3303C99.5416 25.7458 100.373 24.5257 99.9324 23.6729Z" fill="#8E6546"/>
<path fill-rule="evenodd" clip-rule="evenodd" d="M146.415 16.0991C146.843 15.5945 147.106 15.4348 146.959 14.665C143.673 14.9142 140.987 14.796 137.603 14.7992C135.715 14.8024 134.833 14.5724 134.692 16.3323L139.014 16.23L139.039 28.9066L142.447 28.9258C142.588 24.959 142.45 20.4332 142.534 16.2205L146.415 16.0991Z" fill="#8E6546"/>
<path fill-rule="evenodd" clip-rule="evenodd" d="M118.947 16.0038C119.982 15.6461 120.276 15.5982 120.294 14.3047C118.193 14.8093 114.626 13.6148 114.801 16.0933L116.13 15.9208L116.101 27.3486C115.263 27.8532 114.779 27.7733 114.791 29.0413C115.592 29.0669 117.111 28.9295 118.168 28.9231C119.644 28.9136 120.238 28.9519 120.319 27.2879L118.937 27.4348L118.947 16.0038Z" fill="#8E6546"/>
<path fill-rule="evenodd" clip-rule="evenodd" d="M109.091 9.01031C109.106 8.58871 109.097 8.54081 109.328 8.14796C109.629 7.63055 109.466 7.74872 110.082 7.70081C109.954 8.28529 109.45 8.7516 109.091 9.01031ZM123.121 6.54143C123.327 5.89626 123.421 5.2479 124.109 5.25429C123.924 5.72379 123.555 6.24759 123.121 6.54143ZM134.09 6.32744C134.39 5.25109 135.14 4.28015 135.812 3.54875C135.837 4.21308 134.796 5.84196 134.09 6.32744ZM124.09 4.80714C124.403 4.07893 124.368 4.02144 125.072 3.57749C125 3.77232 124.856 4.20669 124.744 4.37597C124.328 5.00197 124.916 4.54844 124.09 4.80714ZM109.566 7.3399C108.753 8.05214 108.803 8.01701 107.762 8.6494C105.92 9.77045 102.987 12.9101 101.905 11.6389C100.699 10.2176 103.922 3.01856 105.457 3.59985C105.948 4.03103 105.245 4.60912 105.608 5.23832C106.621 4.23863 105.908 1.45994 103.641 4.26418C103.191 4.82311 102.894 5.47786 102.546 6.12622C99.9262 11.0193 101.365 14.0279 104.892 11.345L108.331 8.74841L108.878 9.50536C109.713 9.3297 109.898 8.89213 110.426 8.28529C111.186 9.1189 111.792 10.7638 115.069 9.06141L115.319 9.36483C115.573 9.62354 115.191 9.37761 115.585 9.54049C116.429 8.97198 116.383 8.3332 117.239 7.91161C117.48 11.0831 120.463 9.14764 121.854 8.79951C122.277 12.7887 126.16 10.2144 127.817 8.78035C128.627 9.44148 128.718 9.82794 130.203 9.58202C130.953 9.46065 131.838 9.17639 132.404 8.7516C132.714 9.18917 132.526 9.20514 132.711 9.60437L133.989 8.57274C135.468 9.96848 136.297 10.1505 138.548 8.99114C139.774 8.35875 139.424 8.54081 139.474 8.04256C138.664 8.27252 138.073 8.92407 137.001 9.17C135.753 9.45426 134.806 9.19875 134.474 8.20864C134.687 7.87648 134.49 8.10324 134.809 7.8094C135.203 7.4453 135.231 7.60499 135.559 6.93747C134.63 7.06523 134.133 7.96271 133.255 8.46415C133.633 6.87998 136.516 5.36607 136.253 3.09841C134.781 3.10799 133.78 5.85474 133.236 7.0812C132.704 8.27891 132.661 8.27571 131.435 8.74202C130.372 9.14445 129.49 9.28179 128.443 8.96559C128.236 8.21503 128.411 7.94993 128.611 7.20576C127.086 7.88606 129.03 7.69123 126.257 9.44468C125.463 9.94292 124.325 10.636 123.243 10.3773C121.901 10.0579 122.23 8.32681 122.889 7.58583C123.565 6.82888 124.259 6.04318 124.647 5.1457L127.798 5.40759C127.673 5.09459 128.161 4.99878 126.601 4.83269C126.072 4.7784 125.632 4.76882 125.1 4.76562C125.263 4.11087 125.547 3.98631 125.491 3.17506C124.443 2.98662 123.952 4.11726 123.477 4.81034C122.302 4.85505 120.713 4.81992 120.438 5.58645L123.155 5.27026C122.993 5.86432 122.671 6.26995 122.423 6.93747C122.07 7.89244 122.198 8.01062 121.476 8.41624C120.363 9.04544 119 9.52452 117.805 8.9113L117.624 7.35906C116.67 7.3431 116.761 7.82537 116.06 8.23739L116.686 6.56378C115.416 7.13869 116.401 8.40027 113.756 9.13487C112.99 9.34567 112.018 9.45426 111.417 8.95282C110.832 8.46735 111.064 7.7583 111.167 6.95025C109.994 7.40697 111.092 7.47085 109.566 7.3399Z" fill="#8E6546"/>
<path fill-rule="evenodd" clip-rule="evenodd" d="M85.7083 8.9933C85.6989 8.01597 86.0898 7.75727 86.7026 7.687C86.6432 8.16289 86.6807 8.27148 85.7083 8.9933ZM62.9421 7.86586C63.2704 6.71606 63.9927 5.87926 64.593 5.13508C67.9731 0.938301 68.5672 6.72564 62.9421 7.86586ZM93.4221 6.46054C93.6754 5.39059 94.5571 4.03957 95.2294 3.53494C95.1168 4.56976 93.9443 5.98146 93.4221 6.46054ZM87.0309 7.38039C85.3018 6.96837 86.3555 8.22357 83.8604 9.00608C81.4277 9.76942 81.681 8.79528 81.237 7.30373C80.1676 7.55605 80.474 7.96487 79.8455 8.42479L79.8049 6.94921C78.6574 6.96518 78.8356 7.74449 78.0789 8.35772C78.2165 7.48898 78.5198 7.38039 78.6261 6.58191C77.1502 7.10891 78.8669 8.14692 75.7494 9.14661C72.3662 10.2293 73.2167 7.65187 72.9259 7.06738C72.3819 7.45385 72.3756 7.67422 71.8785 8.18525C71.3594 8.72182 71.5658 8.81764 70.7841 9.09551C70.831 8.03513 71.0374 8.14053 71.2344 7.29096C70.0837 7.64867 71.3969 7.30054 69.5834 9.00608C66.5879 11.8295 64.887 10.2709 63.358 8.38327C63.9083 7.82753 64.79 7.97126 66.1564 6.73841C68.9487 4.22162 67.2258 2.31487 65.3747 3.82239C64.937 4.17691 64.2491 4.8604 63.8676 5.3331C63.9583 4.61447 64.2522 3.7617 63.8551 3.05585C63.2516 1.98909 61.435 2.93449 60.7658 4.04596C60.3187 4.79014 60.1717 5.44169 61.0347 5.71637C60.9222 4.71668 60.672 4.71029 61.4694 3.87988C61.879 3.4519 62.4137 2.99198 63.2954 3.11015C64.0646 4.17691 62.8921 7.09932 62.2604 8.03513C61.732 8.17247 61.6914 8.03833 61.2818 8.38327L62.0103 8.7346C61.6351 9.47558 60.1686 11.9509 60.0498 12.4235C60.7377 12.3501 60.5001 12.3277 60.9503 11.6027L62.545 8.54935C64.0302 8.92623 63.8364 10.849 66.2127 10.9575C67.8574 11.0342 69.574 9.71832 70.24 9.02205L70.7122 9.54585C71.6752 9.40532 71.9754 8.84 72.4507 8.27787C72.9854 9.26159 73.0229 9.74067 74.4706 9.80136C75.5462 9.84927 76.5155 9.34463 77.2284 8.98053C77.2441 9.02205 77.3222 9.24881 77.3316 9.27117C77.4723 9.54585 77.4098 9.42448 77.5724 9.59695C78.4635 9.2552 78.5823 8.04152 79.3671 7.56563L79.5297 9.00288C80.2301 9.07954 80.3896 8.56852 80.8399 7.95529C81.7091 9.85885 81.6247 10.2389 85.1392 8.96775L85.38 9.38615C85.3925 9.35102 85.4488 9.46919 85.4832 9.51071C86.3618 9.3063 86.5025 8.86874 87.0309 8.28426C87.6594 9.08593 87.675 9.68957 89.104 9.75026C90.3328 9.80455 91.0113 9.36699 91.8462 8.96136L92.1933 9.52668C92.9374 8.96456 93.0281 8.4216 93.9755 7.96168C94.1788 11.5069 98.6188 9.03802 98.8189 8.1054C97.6652 8.22677 97.1868 9.59376 94.8823 9.2552C94.1756 8.39604 94.6165 8.48867 94.282 7.48898C93.3814 7.50175 93.2657 7.84989 92.6529 8.25871C92.9343 7.48579 93.7004 6.93324 94.432 5.92397C94.998 5.14147 95.8172 4.30467 95.6234 3.10696C94.4602 3.06863 94.0693 4.23121 93.544 5.18937C92.6654 6.78952 92.4684 9.33824 89.2666 9.3063C87.4874 9.28714 87.5156 8.45034 87.7532 6.9524C87.4311 7.05142 87.6438 6.94602 87.3405 7.11529L87.0309 7.38039Z" fill="#8E6546"/>
<path fill-rule="evenodd" clip-rule="evenodd" d="M128.593 6.8981C129.059 6.74798 128.724 7.19832 129.059 6.69049C129.393 6.18266 129.009 6.26571 129.002 6.25293C128.618 6.50844 128.708 6.22418 128.593 6.8981Z" fill="#8E6546"/>
<path d="M102.352 33.5711V34.778H103.668V35.1665H102.352V36.4097H103.823V36.7982H101.881V33.1826H103.823V33.5711H102.352Z" fill="#8E6546"/>
<path d="M100.63 36.7989L99.7697 35.3226H99.1999V36.7989H98.7285V33.1885H99.894C100.167 33.1885 100.396 33.2351 100.583 33.3283C100.773 33.4216 100.914 33.5476 101.008 33.7065C101.101 33.8653 101.148 34.0466 101.148 34.2504C101.148 34.499 101.075 34.7183 100.93 34.9082C100.788 35.0981 100.574 35.2242 100.288 35.2863L101.194 36.7989H100.63ZM99.1999 34.9445H99.894C100.15 34.9445 100.341 34.8823 100.469 34.758C100.597 34.6302 100.661 34.461 100.661 34.2504C100.661 34.0363 100.597 33.8705 100.469 33.7531C100.345 33.6357 100.153 33.577 99.894 33.577H99.1999V34.9445Z" fill="#8E6546"/>
<path d="M97.3728 35.9958H95.7981L95.508 36.7987H95.0107L96.3161 33.209H96.86L98.1601 36.7987H97.6629L97.3728 35.9958ZM97.2381 35.6125L96.5854 33.7891L95.9328 35.6125H97.2381Z" fill="#8E6546"/>
<path d="M91.0615 34.9908C91.0615 34.6386 91.1409 34.3226 91.2998 34.0429C91.4587 33.7597 91.6745 33.5387 91.9473 33.3799C92.2236 33.221 92.5292 33.1416 92.8641 33.1416C93.2578 33.1416 93.6014 33.2366 93.8949 33.4265C94.1885 33.6164 94.4026 33.8858 94.5373 34.2346H93.9726C93.8725 34.017 93.7275 33.8495 93.5375 33.7321C93.3511 33.6147 93.1266 33.556 92.8641 33.556C92.612 33.556 92.3859 33.6147 92.1856 33.7321C91.9853 33.8495 91.8282 34.017 91.7142 34.2346C91.6002 34.4487 91.5433 34.7008 91.5433 34.9908C91.5433 35.2775 91.6002 35.5295 91.7142 35.7471C91.8282 35.9612 91.9853 36.127 92.1856 36.2444C92.3859 36.3618 92.612 36.4205 92.8641 36.4205C93.1266 36.4205 93.3511 36.3635 93.5375 36.2496C93.7275 36.1321 93.8725 35.9647 93.9726 35.7471H94.5373C94.4026 36.0924 94.1885 36.3601 93.8949 36.55C93.6014 36.7365 93.2578 36.8297 92.8641 36.8297C92.5292 36.8297 92.2236 36.752 91.9473 36.5966C91.6745 36.4378 91.4587 36.2185 91.2998 35.9388C91.1409 35.659 91.0615 35.3431 91.0615 34.9908Z" fill="#8E6546"/>
<path d="M89.3595 33.1885L88.1836 35.4366V36.7989H87.7123V35.4366L86.5312 33.1885H87.0544L87.9454 35.017L88.8363 33.1885H89.3595Z" fill="#8E6546"/>
<path d="M86.2506 33.1885V33.5718H85.2664V36.7989H84.795V33.5718H83.8057V33.1885H86.2506Z" fill="#8E6546"/>
<path d="M80.9948 33.1885V35.4728C80.9948 35.794 81.0725 36.0323 81.2279 36.1877C81.3868 36.3431 81.606 36.4208 81.8858 36.4208C82.162 36.4208 82.3779 36.3431 82.5332 36.1877C82.6921 36.0323 82.7715 35.794 82.7715 35.4728V33.1885H83.2429V35.4676C83.2429 35.7681 83.1825 36.0219 83.0616 36.2291C82.9407 36.4328 82.7767 36.5848 82.5695 36.6849C82.3658 36.7851 82.1361 36.8351 81.8806 36.8351C81.625 36.8351 81.3937 36.7851 81.1865 36.6849C80.9827 36.5848 80.8204 36.4328 80.6996 36.2291C80.5821 36.0219 80.5234 35.7681 80.5234 35.4676V33.1885H80.9948Z" fill="#8E6546"/>
<path d="M79.1775 35.9958H77.6028L77.3127 36.7987H76.8154L78.1208 33.209H78.6647L79.9648 36.7987H79.4676L79.1775 35.9958ZM79.0428 35.6125L78.3901 33.7891L77.7375 35.6125H79.0428Z" fill="#8E6546"/>
<path d="M74.8591 33.5711V34.778H76.1748V35.1665H74.8591V36.4097H76.3302V36.7982H74.3877V33.1826H76.3302V33.5711H74.8591Z" fill="#8E6546"/>
<path d="M73.0187 34.9393C73.15 34.96 73.2691 35.0135 73.3761 35.0999C73.4867 35.1862 73.573 35.2933 73.6351 35.421C73.7008 35.5488 73.7336 35.6852 73.7336 35.8302C73.7336 36.0133 73.6869 36.179 73.5937 36.3275C73.5005 36.4726 73.3641 36.5882 73.1845 36.6746C73.0084 36.7574 72.7994 36.7989 72.5577 36.7989H71.2109V33.1885H72.5059C72.7511 33.1885 72.96 33.2299 73.1327 33.3128C73.3054 33.3922 73.4349 33.501 73.5212 33.6391C73.6075 33.7773 73.6507 33.9327 73.6507 34.1053C73.6507 34.3194 73.592 34.4973 73.4746 34.6389C73.3606 34.777 73.2087 34.8771 73.0187 34.9393ZM71.6823 34.7476H72.4748C72.6958 34.7476 72.8668 34.6958 72.9877 34.5922C73.1085 34.4886 73.1689 34.3453 73.1689 34.1623C73.1689 33.9793 73.1085 33.836 72.9877 33.7324C72.8668 33.6288 72.6924 33.577 72.4645 33.577H71.6823V34.7476ZM72.5163 36.4104C72.7511 36.4104 72.9341 36.3551 73.0654 36.2446C73.1966 36.1341 73.2622 35.9805 73.2622 35.7836C73.2622 35.5833 73.1931 35.4262 73.055 35.3122C72.9169 35.1948 72.7321 35.1361 72.5007 35.1361H71.6823V36.4104H72.5163Z" fill="#8E6546"/>
</svg>
